<svg width="20" height="20" viewBox="0 0 20 20" fill="none" xmlns="http://www.w3.org/2000/svg">
<path d="M10 0C8.02219 0 6.08879 0.58649 4.4443 1.6853C2.79981 2.78412 1.51809 4.3459 0.761209 6.17316C0.00433294 8.00043 -0.1937 10.0111 0.192152 11.9509C0.578004 13.8907 1.53041 15.6725 2.92894 17.0711C4.32746 18.4696 6.10929 19.422 8.0491 19.8078C9.98891 20.1937 11.9996 19.9957 13.8268 19.2388C15.6541 18.4819 17.2159 17.2002 18.3147 15.5557C19.4135 13.9112 20 11.9778 20 10C20 7.34783 18.9464 4.8043 17.0711 2.92893C15.1957 1.05357 12.6522 0 10 0ZM13.3333 6.66667C13.597 6.66667 13.8548 6.74486 14.0741 6.89137C14.2934 7.03788 14.4643 7.24612 14.5652 7.48975C14.6661 7.73339 14.6925 8.00148 14.641 8.26012C14.5896 8.51876 14.4626 8.75634 14.2761 8.94281C14.0897 9.12928 13.8521 9.25627 13.5935 9.30771C13.3348 9.35916 13.0667 9.33276 12.8231 9.23184C12.5795 9.13092 12.3712 8.96002 12.2247 8.74076C12.0782 8.52149 12 8.26371 12 8C12 7.64638 12.1405 7.30724 12.3905 7.05719C12.6406 6.80714 12.9797 6.66667 13.3333 6.66667ZM6.66667 6.66667C6.93038 6.66667 7.18816 6.74486 7.40743 6.89137C7.6267 7.03788 7.79759 7.24612 7.89851 7.48975C7.99943 7.73339 8.02583 8.00148 7.97438 8.26012C7.92294 8.51876 7.79595 8.75634 7.60948 8.94281C7.42301 9.12928 7.18543 9.25627 6.92679 9.30771C6.66815 9.35916 6.40006 9.33276 6.15643 9.23184C5.91279 9.13092 5.70455 8.96002 5.55804 8.74076C5.41154 8.52149 5.33334 8.26371 5.33334 8C5.33334 7.64638 5.47381 7.30724 5.72386 7.05719C5.97391 6.80714 6.31305 6.66667 6.66667 6.66667ZM15.9 13.3C15.2914 14.3332 14.4215 15.1881 13.3779 15.7788C12.3343 16.3694 11.1536 16.675 9.95448 16.6649C8.75535 16.6547 7.58 16.3292 6.5465 15.721C5.513 15.1128 4.65775 14.2434 4.06667 13.2C4.0229 13.1234 3.99464 13.0389 3.98351 12.9514C3.97239 12.8639 3.97861 12.775 4.00182 12.6899C4.02504 12.6048 4.06479 12.5251 4.11881 12.4553C4.17283 12.3855 4.24007 12.3271 4.31667 12.2833C4.39327 12.2396 4.47775 12.2113 4.56528 12.2002C4.6528 12.189 4.74166 12.1953 4.82678 12.2185C4.9119 12.2417 4.99161 12.2815 5.06137 12.3355C5.13113 12.3895 5.18956 12.4567 5.23334 12.5333C5.71195 13.3667 6.40058 14.0602 7.23063 14.5446C8.06068 15.029 9.00317 15.2874 9.9642 15.2942C10.9252 15.3009 11.8712 15.0557 12.708 14.583C13.5448 14.1103 14.2431 13.4266 14.7333 12.6C14.7679 12.5095 14.8219 12.4276 14.8913 12.36C14.9608 12.2925 15.0442 12.2409 15.1356 12.2089C15.2271 12.1768 15.3244 12.1651 15.4209 12.1745C15.5173 12.184 15.6105 12.2143 15.6941 12.2634C15.7776 12.3126 15.8494 12.3793 15.9045 12.459C15.9596 12.5387 15.9966 12.6295 16.0131 12.725C16.0295 12.8205 16.0249 12.9184 15.9996 13.012C15.9743 13.1055 15.929 13.1924 15.8667 13.2667L15.9 13.3Z" fill="#C2D3E7"/>
</svg>
