<svg width="18" height="20" viewBox="0 0 18 20" fill="none" xmlns="http://www.w3.org/2000/svg">
<path d="M16.4671 9.1C17.4532 8.09571 18.0042 6.73964 18 5.32791C17.9957 3.91619 17.4365 2.56351 16.4443 1.56526C15.4522 0.567016 14.1079 0.00431001 12.7048 2.46561e-05C11.3017 -0.0042607 9.95399 0.550222 8.95586 1.54239L1.14389 9.40261C1.02296 9.5286 0.956037 9.69734 0.95755 9.8725C0.959063 10.0476 1.02889 10.2152 1.15198 10.3391C1.27508 10.4629 1.4416 10.5332 1.61567 10.5347C1.78975 10.5362 1.95746 10.4689 2.08267 10.3472L9.89464 2.48697C10.6437 1.74541 11.6537 1.33173 12.7046 1.33604C13.7554 1.34034 14.762 1.76228 15.5051 2.50995C16.2482 3.25762 16.6676 4.27044 16.6718 5.32779C16.6761 6.38514 16.265 7.40136 15.528 8.15509L5.83845 17.9048C5.59182 18.1529 5.29903 18.3498 4.9768 18.484C4.65457 18.6183 4.30921 18.6874 3.96044 18.6874C3.61167 18.6874 3.26632 18.6182 2.9441 18.4839C2.62188 18.3496 2.32911 18.1528 2.08251 17.9046C1.8359 17.6565 1.64028 17.3619 1.50683 17.0377C1.37337 16.7134 1.30469 16.366 1.30471 16.015C1.30472 15.6641 1.37343 15.3166 1.50692 14.9924C1.6404 14.6682 1.83604 14.3736 2.08267 14.1255L10.8338 5.32036C11.0828 5.0698 11.4206 4.92905 11.7728 4.92908C12.125 4.92911 12.4628 5.06992 12.7118 5.32053C12.9608 5.57113 13.1007 5.91101 13.1007 6.26539C13.1006 6.61977 12.9607 6.95962 12.7116 7.21018L5.83778 14.1262C5.71329 14.2515 5.64339 14.4215 5.64345 14.5987C5.64351 14.7759 5.71354 14.9458 5.83811 15.0711C5.96269 15.1963 6.13162 15.2667 6.30774 15.2666C6.48385 15.2665 6.65273 15.1961 6.77722 15.0707L13.6504 8.15509C13.897 7.90698 14.0927 7.61242 14.2262 7.28824C14.3597 6.96405 14.4284 6.61658 14.4284 6.26567C14.4285 5.91476 14.3598 5.56728 14.2264 5.24307C14.0929 4.91886 13.8973 4.62427 13.6507 4.37612C13.4042 4.12796 13.1114 3.93111 12.7892 3.79679C12.467 3.66248 12.1217 3.59333 11.7729 3.5933C11.0686 3.59324 10.3931 3.8747 9.89497 4.37578L1.14389 13.1809C0.406893 13.9346 -0.00424594 14.9509 3.30691e-05 16.0082C0.00431207 17.0656 0.423662 18.0784 1.16674 18.8261C1.90982 19.5737 2.91642 19.9957 3.96728 20C5.01814 20.0043 6.02812 19.5906 6.77722 18.849L16.4671 9.1Z" fill="#C2D3E7"/>
</svg>
