<svg width="17" height="18" viewBox="0 0 17 18" fill="none" xmlns="http://www.w3.org/2000/svg">
<path d="M10.3176 9L16.6236 15.6769C17.1255 16.2084 17.1255 17.07 16.6236 17.6014C16.1217 18.1329 15.3079 18.1329 14.806 17.6014L8.5 10.9245L2.19399 17.6014C1.69209 18.1329 0.878336 18.1329 0.37643 17.6014C-0.125476 17.07 -0.125476 16.2084 0.37643 15.6769L6.68244 9L0.376432 2.32305C-0.125475 1.79162 -0.125475 0.930002 0.376432 0.398572C0.878338 -0.132858 1.69209 -0.132857 2.19399 0.398573L8.5 7.07552L14.806 0.398574C15.3079 -0.132856 16.1217 -0.132856 16.6236 0.398574C17.1255 0.930004 17.1255 1.79162 16.6236 2.32305L10.3176 9Z" fill="white"/>
</svg>
